<svg width="20" height="20" viewBox="0 0 20 20" fill="none" xmlns="http://www.w3.org/2000/svg">
<g id="Icon=paperclip, Component=Additional Icons">
<path id="Vector" d="M15.0667 10.3501L9.91667 15.5084C9.24152 16.1084 8.36263 16.4278 7.45977 16.4012C6.55692 16.3747 5.69834 16.0041 5.05965 15.3655C4.42096 14.7268 4.05043 13.8682 4.02385 12.9653C3.99728 12.0625 4.31666 11.1836 4.91667 10.5084L11.5833 3.84176C11.9814 3.46368 12.5094 3.25287 13.0583 3.25287C13.6073 3.25287 14.1353 3.46368 14.5333 3.84176C14.9211 4.23475 15.1386 4.76465 15.1386 5.31676C15.1386 5.86887 14.9211 6.39877 14.5333 6.79176L8.78334 12.5334C8.72643 12.5947 8.65801 12.6442 8.58199 12.679C8.50596 12.7139 8.42382 12.7334 8.34024 12.7365C8.25667 12.7396 8.17331 12.7262 8.09491 12.6971C8.01651 12.6679 7.94462 12.6237 7.88334 12.5668C7.82206 12.5099 7.77258 12.4414 7.73774 12.3654C7.7029 12.2894 7.68337 12.2072 7.68028 12.1237C7.67718 12.0401 7.69058 11.9567 7.7197 11.8783C7.74882 11.7999 7.7931 11.728 7.85001 11.6668L12.125 7.4001C12.2819 7.24318 12.3701 7.03035 12.3701 6.80843C12.3701 6.58651 12.2819 6.37368 12.125 6.21676C11.9681 6.05984 11.7553 5.97169 11.5333 5.97169C11.3114 5.97169 11.0986 6.05984 10.9417 6.21676L6.66667 10.5001C6.45276 10.7123 6.28298 10.9648 6.16712 11.243C6.05125 11.5212 5.9916 11.8196 5.9916 12.1209C5.9916 12.4223 6.05125 12.7206 6.16712 12.9988C6.28298 13.277 6.45276 13.5295 6.66667 13.7418C7.10365 14.158 7.68401 14.3902 8.28751 14.3902C8.891 14.3902 9.47136 14.158 9.90834 13.7418L15.65 7.99176C16.3124 7.28089 16.673 6.34065 16.6559 5.36915C16.6387 4.39764 16.2452 3.47072 15.5581 2.78365C14.871 2.09659 13.9441 1.70303 12.9726 1.68589C12.0011 1.66875 11.0609 2.02936 10.35 2.69176L3.68334 9.35843C2.78434 10.3541 2.3042 11.6583 2.34295 12.9992C2.3817 14.3402 2.93637 15.6145 3.89137 16.5566C4.84638 17.4987 6.12807 18.036 7.46941 18.0565C8.81075 18.077 10.1083 17.5792 11.0917 16.6668L16.25 11.5168C16.3277 11.4391 16.3893 11.3468 16.4314 11.2453C16.4734 11.1438 16.4951 11.035 16.4951 10.9251C16.4951 10.8152 16.4734 10.7064 16.4314 10.6049C16.3893 10.5034 16.3277 10.4111 16.25 10.3334C16.1723 10.2557 16.0801 10.1941 15.9785 10.152C15.877 10.11 15.7682 10.0884 15.6583 10.0884C15.5485 10.0884 15.4396 10.11 15.3381 10.152C15.2366 10.1941 15.1444 10.2557 15.0667 10.3334V10.3501Z" fill="#9E9E9E"/>
</g>
</svg>
