<svg width="18" height="16" viewBox="0 0 18 16" fill="none" xmlns="http://www.w3.org/2000/svg">
<g id="Group">
<path id="Exclude" fill-rule="evenodd" clip-rule="evenodd" d="M13.5333 3.197C13.5667 3.25527 13.625 3.29689 13.7 3.29689C15.7 3.29689 17.3333 4.92841 17.3333 6.92619V11.8707C17.3333 13.8685 15.7 15.5 13.7 15.5H4.30001C2.29167 15.5 0.666672 13.8685 0.666672 11.8707V6.92619C0.666672 4.92841 2.29167 3.29689 4.30001 3.29689C4.36667 3.29689 4.43334 3.2636 4.45834 3.197L4.50834 3.09711C4.53707 3.03665 4.56655 2.97455 4.59648 2.9115C4.80967 2.46246 5.04552 1.96567 5.19167 1.6737C5.57501 0.924528 6.22501 0.508324 7.03334 0.5H10.9583C11.7667 0.508324 12.425 0.924528 12.8083 1.6737C12.9396 1.93592 13.1396 2.35833 13.3323 2.76545C13.3721 2.84942 13.4115 2.93274 13.45 3.01387L13.5333 3.197ZM12.925 6.39345C12.925 6.80966 13.2583 7.14262 13.675 7.14262C14.0917 7.14262 14.4333 6.80966 14.4333 6.39345C14.4333 5.97725 14.0917 5.63596 13.675 5.63596C13.2583 5.63596 12.925 5.97725 12.925 6.39345ZM7.55834 7.68368C7.95001 7.29245 8.45834 7.08435 9 7.08435C9.54167 7.08435 10.05 7.29245 10.4333 7.67536C10.8167 8.05827 11.025 8.56604 11.025 9.1071C11.0167 10.2225 10.1167 11.1299 9 11.1299C8.45834 11.1299 7.95001 10.9218 7.56667 10.5388C7.18334 10.1559 6.97501 9.64817 6.97501 9.1071V9.09878C6.96667 8.57436 7.175 8.06659 7.55834 7.68368ZM11.3083 11.4212C10.7167 12.0122 9.90001 12.3785 9.00001 12.3785C8.12501 12.3785 7.30834 12.0372 6.68334 11.4212C6.06667 10.7969 5.72501 9.98113 5.72501 9.1071C5.71667 8.2414 6.05834 7.42564 6.67501 6.80133C7.30001 6.17703 8.12501 5.83574 9.00001 5.83574C9.87501 5.83574 10.7 6.17703 11.3167 6.79301C11.9333 7.41731 12.275 8.2414 12.275 9.1071C12.2667 10.0144 11.9 10.8302 11.3083 11.4212Z" fill="#9E9E9E"/>
</g>
</svg>
