<svg width="64" height="64" viewBox="0 0 64 64" fill="none" xmlns="http://www.w3.org/2000/svg">
<path fill-rule="evenodd" clip-rule="evenodd" d="M21.3333 3.33331H10.6666C6.61592 3.33331 3.33325 6.61598 3.33325 10.6666V21.3333C3.33325 22.4373 4.22925 23.3333 5.33325 23.3333C6.43725 23.3333 7.33325 22.4373 7.33325 21.3333V10.6666C7.33325 8.82665 8.82659 7.33331 10.6666 7.33331H21.3333C22.4373 7.33331 23.3333 6.43731 23.3333 5.33331C23.3333 4.22931 22.4373 3.33331 21.3333 3.33331Z" fill="#247CFF"/>
<path fill-rule="evenodd" clip-rule="evenodd" d="M21.3333 56.6666H10.6666C8.82659 56.6666 7.33325 55.1733 7.33325 53.3333V42.6666C7.33325 41.5626 6.43725 40.6666 5.33325 40.6666C4.22925 40.6666 3.33325 41.5626 3.33325 42.6666V53.3333C3.33325 57.384 6.61592 60.6666 10.6666 60.6666H21.3333C22.4373 60.6666 23.3333 59.7706 23.3333 58.6666C23.3333 57.5626 22.4373 56.6666 21.3333 56.6666Z" fill="#247CFF"/>
<path fill-rule="evenodd" clip-rule="evenodd" d="M60.6665 21.3333V10.6666C60.6665 6.61598 57.3838 3.33331 53.3332 3.33331H42.6665C41.5625 3.33331 40.6665 4.22931 40.6665 5.33331C40.6665 6.43731 41.5625 7.33331 42.6665 7.33331H53.3332C55.1732 7.33331 56.6665 8.82665 56.6665 10.6666V21.3333C56.6665 22.4373 57.5625 23.3333 58.6665 23.3333C59.7705 23.3333 60.6665 22.4373 60.6665 21.3333Z" fill="#247CFF"/>
<path fill-rule="evenodd" clip-rule="evenodd" d="M56.6665 42.6666V53.3333C56.6665 55.1733 55.1732 56.6666 53.3332 56.6666H42.6665C41.5625 56.6666 40.6665 57.5626 40.6665 58.6666C40.6665 59.7706 41.5625 60.6666 42.6665 60.6666H53.3332C57.3838 60.6666 60.6665 57.384 60.6665 53.3333V42.6666C60.6665 41.5626 59.7705 40.6666 58.6665 40.6666C57.5625 40.6666 56.6665 41.5626 56.6665 42.6666Z" fill="#247CFF"/>
<path fill-rule="evenodd" clip-rule="evenodd" d="M40.6665 18.2053V20.872C40.6665 21.976 41.5625 22.872 42.6665 22.872C43.7705 22.872 44.6665 21.976 44.6665 20.872V18.2053C44.6665 17.1013 43.7705 16.2053 42.6665 16.2053C41.5625 16.2053 40.6665 17.1013 40.6665 18.2053Z" fill="#247CFF"/>
<path fill-rule="evenodd" clip-rule="evenodd" d="M19.3333 18.2053V20.872C19.3333 21.976 20.2293 22.872 21.3333 22.872C22.4373 22.872 23.3333 21.976 23.3333 20.872V18.2053C23.3333 17.1013 22.4373 16.2053 21.3333 16.2053C20.2293 16.2053 19.3333 17.1013 19.3333 18.2053Z" fill="#247CFF"/>
<path fill-rule="evenodd" clip-rule="evenodd" d="M30.1439 24.6906L32.3199 30.1333L30.5865 31.8666C29.8052 32.648 29.8052 33.9146 30.5865 34.696C31.3652 35.4773 32.6345 35.4773 33.4132 34.696L36.0799 32.0293C36.6452 31.464 36.8212 30.616 36.5225 29.872L33.8559 23.2053C33.4479 22.1813 32.2825 21.68 31.2559 22.0906C30.2319 22.5013 29.7332 23.6666 30.1439 24.6906Z" fill="#247CFF"/>
<path fill-rule="evenodd" clip-rule="evenodd" d="M21.6745 44.352L23.0691 45.1493C28.6025 48.312 35.3971 48.312 40.9305 45.1493L42.3251 44.352C43.2851 43.8027 43.6185 42.5813 43.0691 41.6213C42.5225 40.664 41.2985 40.3307 40.3411 40.8773L38.9465 41.6747C34.6425 44.136 29.3571 44.136 25.0531 41.6747L23.6585 40.8773C22.7011 40.3307 21.4771 40.664 20.9305 41.6213C20.3811 42.5813 20.7145 43.8027 21.6745 44.352Z" fill="#247CFF"/>
</svg>
