<svg width="40" height="40" viewBox="0 0 40 40" fill="none" xmlns="http://www.w3.org/2000/svg">
<g id="Mastercard logo" clip-path="url(#clip0_156_8937)">
<g id="XMLID_1_">
<path id="XMLID_2_" d="M7.28203 35.4465V33.3871C7.28203 32.598 6.8 32.0832 5.97812 32.0832C5.56172 32.0832 5.12344 32.2254 4.80547 32.6637C4.56406 32.291 4.225 32.0832 3.71015 32.0832C3.37031 32.0832 3.02031 32.1816 2.74609 32.5652V32.1488H2.03359V35.4465H2.75703V33.6277C2.75703 33.0473 3.06406 32.773 3.54609 32.773C4.02812 32.773 4.26953 33.0801 4.26953 33.6277V35.4465H4.99297V33.6277C4.99297 33.0473 5.33281 32.773 5.78203 32.773C6.26406 32.773 6.50547 33.0801 6.50547 33.6277V35.4465H7.28203ZM17.9641 32.1488H16.7914V31.152H16.068V32.1488H15.4109V32.8059H16.068V34.3176C16.068 35.0738 16.375 35.523 17.1961 35.523C17.5031 35.523 17.8531 35.4246 18.0836 35.2816L17.8758 34.6684C17.668 34.8105 17.4266 34.8434 17.2625 34.8434C16.9227 34.8434 16.7805 34.6355 16.7805 34.2957V32.8168H17.9531V32.1488H17.9641ZM24.0664 32.0832C23.65 32.0832 23.3766 32.291 23.2117 32.5652V32.1488H22.4883V35.4465H23.2117V33.5949C23.2117 33.0473 23.4531 32.7402 23.9016 32.7402C24.0437 32.7402 24.2086 32.773 24.3508 32.8059L24.5586 32.116C24.4172 32.0832 24.2086 32.0832 24.0664 32.0832ZM14.8305 32.423C14.4906 32.1816 14.0086 32.0832 13.4937 32.0832C12.6719 32.0832 12.1242 32.4996 12.1242 33.1457C12.1242 33.6934 12.5406 34.0004 13.2523 34.1098L13.5922 34.1426C13.9648 34.2082 14.1727 34.3176 14.1727 34.4824C14.1727 34.7238 13.8984 34.8988 13.4164 34.8988C12.9344 34.8988 12.5617 34.7238 12.3211 34.559L11.9812 35.1066C12.3539 35.3809 12.8687 35.523 13.3836 35.523C14.3477 35.523 14.8953 35.0738 14.8953 34.4605C14.8953 33.8801 14.4461 33.573 13.7672 33.4637L13.4273 33.4309C13.1203 33.398 12.8797 33.3324 12.8797 33.1238C12.8797 32.8824 13.1211 32.7512 13.493 32.7512C13.9094 32.7512 14.3148 32.9262 14.5227 33.0254L14.8305 32.423ZM33.9922 32.0832C33.5758 32.0832 33.3023 32.291 33.1375 32.5652V32.1488H32.4141V35.4465H33.1375V33.5949C33.1375 33.0473 33.3789 32.7402 33.8273 32.7402C33.9695 32.7402 34.1344 32.773 34.2766 32.8059L34.4844 32.116C34.332 32.0832 34.1234 32.0832 33.9922 32.0832ZM24.7891 33.7926C24.7891 34.7895 25.4789 35.5129 26.5422 35.5129C27.0242 35.5129 27.3641 35.4145 27.7148 35.1402L27.375 34.5598C27.1008 34.7676 26.8273 34.8668 26.5203 34.8668C25.9398 34.8668 25.5234 34.4504 25.5234 33.8043C25.5234 33.191 25.9398 32.7746 26.5203 32.7418C26.8273 32.7418 27.1008 32.8402 27.375 33.0488L27.7148 32.4684C27.375 32.1941 27.025 32.0957 26.5422 32.0957C25.4797 32.0832 24.7891 32.8066 24.7891 33.7926ZM31.4508 33.7926V32.1488H30.7273V32.5652C30.4859 32.2582 30.1469 32.0832 29.6977 32.0832C28.7664 32.0832 28.0539 32.8066 28.0539 33.8035C28.0539 34.8004 28.7773 35.5238 29.6977 35.5238C30.1797 35.5238 30.5195 35.3488 30.7273 35.0418V35.4582H31.4508V33.7926ZM28.8102 33.7926C28.8102 33.2121 29.1828 32.7301 29.807 32.7301C30.3875 32.7301 30.8039 33.1793 30.8039 33.7926C30.8039 34.373 30.3875 34.8551 29.807 34.8551C29.1828 34.8223 28.8102 34.384 28.8102 33.7926ZM20.1875 32.0832C19.2234 32.0832 18.5437 32.773 18.5437 33.8035C18.5437 34.8332 19.2336 35.5238 20.2312 35.5238C20.7133 35.5238 21.1953 35.3816 21.568 35.0746L21.2281 34.5598C20.9539 34.7676 20.6148 34.8996 20.2641 34.8996C19.8148 34.8996 19.3766 34.6918 19.2672 34.1105H21.6992V33.8363C21.7328 32.7621 21.1187 32.0832 20.1875 32.0832ZM20.1875 32.6965C20.6367 32.6965 20.9437 32.9707 21.0094 33.4855H19.2891C19.3664 33.0473 19.6727 32.6965 20.1875 32.6965ZM38.0789 33.7926V30.8457H37.3555V32.566C37.1141 32.259 36.775 32.084 36.3258 32.084C35.3945 32.084 34.682 32.8074 34.682 33.8043C34.682 34.8012 35.4055 35.5246 36.3258 35.5246C36.8078 35.5246 37.1477 35.3496 37.3555 35.0426V35.459H38.0789V33.7926ZM35.4273 33.7926C35.4273 33.2121 35.8 32.7301 36.4242 32.7301C37.0047 32.7301 37.4211 33.1793 37.4211 33.7926C37.4211 34.373 37.0047 34.8551 36.4242 34.8551C35.8109 34.8223 35.4273 34.384 35.4273 33.7926ZM11.3352 33.7926V32.1488H10.6117V32.5652C10.3703 32.2582 10.0312 32.0832 9.58203 32.0832C8.65078 32.0832 7.93828 32.8066 7.93828 33.8035C7.93828 34.8004 8.66172 35.5238 9.58203 35.5238C10.0641 35.5238 10.4039 35.3488 10.6117 35.0418V35.4582H11.3352V33.7926ZM8.6625 33.7926C8.6625 33.2121 9.03515 32.7301 9.65937 32.7301C10.2398 32.7301 10.6562 33.1793 10.6562 33.7926C10.6562 34.373 10.2398 34.8551 9.65937 34.8551C9.03437 34.8223 8.6625 34.384 8.6625 33.7926Z" fill="black"/>
<path id="XMLID_17_" d="M25.4133 7.125H14.6V26.55H25.4133V7.125Z" fill="#FF5F00"/>
<path id="XMLID_18_" d="M15.2797 16.843C15.2797 12.8992 17.1313 9.39297 19.9797 7.125C17.8867 5.48125 15.2469 4.48438 12.3547 4.48438C5.52891 4.48438 -0.00390625 10.0062 -0.00390625 16.843C-0.00390625 23.6688 5.51797 29.2016 12.3547 29.2016C15.2359 29.2016 17.8766 28.2047 19.9797 26.5609C17.1313 24.3258 15.2797 20.7875 15.2797 16.843Z" fill="#EB001B"/>
<path id="XMLID_19_" d="M39.9961 16.843C39.9961 23.6688 34.4742 29.2016 27.6375 29.2016C24.7562 29.2016 22.1156 28.2047 20.0125 26.5609C22.8937 24.293 24.7125 20.7984 24.7125 16.843C24.7125 12.8992 22.8609 9.39297 20.0125 7.125C22.1055 5.48125 24.7453 4.48438 27.6375 4.48438C34.4742 4.48516 39.9961 10.0398 39.9961 16.843Z" fill="#F79E1B"/>
</g>
</g>
<defs>
<clipPath id="clip0_156_8937">
<rect width="40" height="40" fill="white"/>
</clipPath>
</defs>
</svg>
