<?xml version="1.0" encoding="UTF-8"?>
<svg version="1.1" xmlns="http://www.w3.org/2000/svg" width="512" height="512">
<path d="M0 0 C155.1 0 310.2 0 470 0 C470.185625 45.519375 470.37125 91.03875 470.5625 137.9375 C470.62381104 152.33753662 470.68512207 166.73757324 470.74829102 181.57397461 C470.81628418 199.08898926 470.81628418 199.08898926 470.8467865 207.27516174 C470.86854685 213.02179749 470.89306321 218.76841356 470.91941833 224.51502991 C470.94976571 231.13417967 470.97668266 237.75333251 470.99926364 244.37251351 C471.01093786 247.76228233 471.02476829 251.15200551 471.0418998 254.54175365 C471.05995712 258.16174266 471.07193867 261.78170016 471.08229065 265.40171814 C471.09249442 267.00774572 471.09249442 267.00774572 471.10290432 268.6462183 C471.10439795 269.60993036 471.10589157 270.57364243 471.10743046 271.56655788 C471.11084794 272.40460065 471.11426542 273.24264342 471.11778647 274.10608143 C471 276 471 276 470 277 C467.50321268 277.09882468 465.03408594 277.1317786 462.53678799 277.12304783 C461.74209851 277.12420167 460.94740903 277.12535552 460.12863806 277.12654433 C457.4313143 277.12921836 454.73404871 277.12468242 452.03672791 277.12025452 C450.09720854 277.12069006 448.15768922 277.12156465 446.21817023 277.12284368 C440.86168245 277.125092 435.50521446 277.12106279 430.14872921 277.11606562 C424.38250341 277.1117661 418.61627883 277.11320719 412.85005188 277.1139679 C402.85076061 277.11449345 392.85147584 277.11134339 382.8521862 277.10573006 C368.39470959 277.09761928 353.93723614 277.09500027 339.4797575 277.09374207 C316.02613537 277.09155088 292.57251672 277.08489755 269.11889648 277.07543945 C246.32950865 277.0662598 223.54012174 277.05917385 200.75073242 277.05493164 C200.04865767 277.05480011 199.34658292 277.05466859 198.62323317 277.05453308 C191.57291483 277.05321459 184.52259649 277.05193877 177.47227814 277.05069422 C163.10908727 277.04815779 148.74589647 277.04533653 134.38270569 277.04234314 C133.06345945 277.04206841 131.74421321 277.04179369 130.38498981 277.04151063 C86.92332517 277.03233495 43.46166235 277.01660079 0 277 C-1.20004993 274.59990014 -1.11840317 273.13890643 -1.10743046 270.45912743 C-1.10593683 269.49690899 -1.10444321 268.53469055 -1.10290432 267.54331398 C-1.09610181 266.47943144 -1.0892993 265.4155489 -1.08229065 264.31942749 C-1.07907303 263.19746475 -1.07585541 262.07550201 -1.07254028 260.91954041 C-1.06040943 257.12259628 -1.04101529 253.32572265 -1.02172852 249.52880859 C-1.01084771 246.77518351 -1.00148287 244.02155375 -0.99205685 241.26792336 C-0.96842321 234.62113518 -0.93959276 227.97437955 -0.90896895 221.32762031 C-0.87378451 213.6426628 -0.84502613 205.95769018 -0.81628418 198.27270508 C-0.73717551 177.97344793 -0.64929757 157.67422573 -0.5625 137.375 C-0.376875 92.04125 -0.19125 46.7075 0 0 Z M2 275 C2 275.33 2 275.66 2 276 C155.78 276 309.56 276 468 276 C468 275.67 468 275.34 468 275 C314.22 275 160.44 275 2 275 Z " fill="#337B40" transform="translate(21,82)"/>
<path d="M0 0 C155.1 0 310.2 0 470 0 C470 30.36 470 60.72 470 92 C345.59 92.33 221.18 92.66 93 93 C107.52 107.52 122.04 122.04 137 137 C133.19992601 141.43341966 129.46819352 145.67762844 125.34989929 149.77708435 C124.54697511 150.58234852 124.54697511 150.58234852 123.72783023 151.40388066 C121.95461568 153.18104659 120.17789329 154.95466102 118.40112305 156.72827148 C117.1208818 158.00986928 115.84085306 159.29167938 114.5610199 160.57368469 C111.10093999 164.03830598 107.63772573 167.49977795 104.17378592 170.96053958 C100.54793587 174.58385228 96.92453253 178.20961044 93.30073547 181.8349762 C87.22238829 187.91513965 81.14194194 193.99319785 75.06030273 200.07006836 C68.0203172 207.10459762 60.98396121 214.14274197 53.94945115 221.18274635 C47.909588 227.22713857 41.86778953 233.26959111 35.82435066 239.31040817 C32.21446495 242.91873185 28.60526556 246.52773502 24.99780846 250.13848686 C21.61263432 253.52653719 18.22504724 256.91215579 14.83553505 260.29586601 C13.58856876 261.54150398 12.34246388 262.78800492 11.09725952 264.03540421 C9.40552379 265.72984823 7.71077768 267.42122056 6.0151825 269.11180115 C5.26695592 269.86337381 5.26695592 269.86337381 4.50361365 270.63012975 C1.11415079 274 1.11415079 274 0 274 C0 183.58 0 93.16 0 0 Z " fill="#000000" transform="translate(21,82)"/>
<path d="M0 0 C124.74 0 249.48 0 378 0 C378 30.03 378 60.06 378 91 C253.26 91 128.52 91 0 91 C6.75 83.125 6.75 83.125 10.16943359 79.71704102 C10.92976898 78.95678116 11.69010437 78.1965213 12.47348022 77.41322327 C13.67383408 76.22061134 13.67383408 76.22061134 14.8984375 75.00390625 C15.73339752 74.17036118 16.56835754 73.3368161 17.42861938 72.47801208 C20.07505848 69.83713476 22.72496759 67.19977104 25.375 64.5625 C27.17861643 62.76390351 28.98200425 60.96507773 30.78515625 59.16601562 C35.18746261 54.77468752 39.59261714 50.38623271 44 46 C39.31771692 40.36722749 34.3059192 35.18945071 29.1015625 30.0390625 C27.84912247 28.7923024 27.84912247 28.7923024 26.57138062 27.52035522 C23.92500483 24.88612517 21.27540454 22.25517613 18.625 19.625 C15.11436686 16.14084317 11.60697663 12.6534692 8.1015625 9.1640625 C6.88299057 7.95793808 6.88299057 7.95793808 5.63980103 6.72744751 C4.8983786 5.98932831 4.15695618 5.25120911 3.39306641 4.49072266 C2.73609772 3.83899078 2.07912903 3.18725891 1.4022522 2.51577759 C0 1 0 1 0 0 Z " fill="#FEFEFE" transform="translate(113,174)"/>
<path d="M0 0 C4.43558025 3.80192593 8.67884491 7.53399893 12.77708435 11.65682983 C13.31392713 12.19281819 13.85076991 12.72880655 14.40388066 13.28103697 C16.18105532 15.05657993 17.95465988 16.83564452 19.72827148 18.61474609 C21.00986093 19.89661794 22.29167126 21.17826898 23.57368469 22.4597168 C27.03821186 25.92395804 30.49965555 29.3912653 33.96053958 32.85914564 C37.58355505 36.48842881 41.20941842 40.11486452 44.8349762 43.74160767 C51.69328289 50.60301761 58.54903729 57.46697183 65.40387064 64.3318516 C73.21085159 72.15002495 81.0206854 79.96534582 88.83075607 87.78043246 C104.89033939 103.8504574 120.94635 119.92404794 137 136 C131.2573037 143.01944949 124.81176392 149.32903117 118.40112305 155.72827148 C117.1208818 157.00986928 115.84085306 158.29167938 114.5610199 159.57368469 C111.10093999 163.03830598 107.63772573 166.49977795 104.17378592 169.96053958 C100.54793587 173.58385228 96.92453253 177.20961044 93.30073547 180.8349762 C87.22238829 186.91513965 81.14194194 192.99319785 75.06030273 199.07006836 C68.0203172 206.10459762 60.98396121 213.14274197 53.94945115 220.18274635 C47.909588 226.22713857 41.86778953 232.26959111 35.82435066 238.31040817 C32.21446495 241.91873185 28.60526556 245.52773502 24.99780846 249.13848686 C21.61263432 252.52653719 18.22504724 255.91215579 14.83553505 259.29586601 C13.58856876 260.54150398 12.34246388 261.78800492 11.09725952 263.03540421 C9.40552379 264.72984823 7.71077768 266.42122056 6.0151825 268.11180115 C5.26695592 268.86337381 5.26695592 268.86337381 4.50361365 269.63012975 C1.11415079 273 1.11415079 273 0 273 C0 182.91 0 92.82 0 0 Z " fill="#BB002F" transform="translate(21,83)"/>
<path d="M0 0 C1.5 2.125 1.5 2.125 2 5 C2.20109375 5.61359375 2.4021875 6.2271875 2.609375 6.859375 C4.18542669 11.8181718 4.04525765 15.0727884 2 20 C-1.04728546 24.67250438 -1.04728546 24.67250438 -4 25.6875 C-4.66 25.790625 -5.32 25.89375 -6 26 C-7.3479743 26.63654342 -8.68596724 27.29605388 -10 28 C-10 28.33 -10 28.66 -10 29 C-11.98 29 -13.96 29 -16 29 C-15.96519531 30.05960937 -15.93039063 31.11921875 -15.89453125 32.2109375 C-15.86639601 33.59894252 -15.83909557 34.98696463 -15.8125 36.375 C-15.77479492 37.42300781 -15.77479492 37.42300781 -15.73632812 38.4921875 C-15.70703125 40.5234375 -15.70703125 40.5234375 -16 44 C-19.4352048 46.29013653 -20.985331 46.17842973 -25 46 C-26.18776537 43.62446926 -26.0882153 42.28678627 -26.02172852 39.64208984 C-26.00163223 38.74130707 -25.98153595 37.84052429 -25.96083069 36.91244507 C-25.93379562 35.93844757 -25.90676056 34.96445007 -25.87890625 33.9609375 C-25.84348976 32.46694931 -25.84348976 32.46694931 -25.80735779 30.94277954 C-25.73062353 27.75337819 -25.64664116 24.56421372 -25.5625 21.375 C-25.50928909 19.21615753 -25.45654864 17.0573034 -25.40429688 14.8984375 C-25.27499524 9.59881093 -25.1397381 4.29936109 -25 -1 C-16.69062893 -2.42104137 -8.07746192 -2.96121924 0 0 Z M-18 4 C-18 9.61 -18 15.22 -18 21 C-17.67 21 -17.34 21 -17 21 C-17 15.39 -17 9.78 -17 4 C-17.33 4 -17.66 4 -18 4 Z M-10 5 C-11.98 5.33 -13.96 5.66 -16 6 C-16 10.29 -16 14.58 -16 19 C-13.03 19.33 -10.06 19.66 -7 20 C-6.67 19.34 -6.34 18.68 -6 18 C-5.34 17.67 -4.68 17.34 -4 17 C-2.99081538 13.97244614 -2.9019018 12.33202466 -3.8125 9.25 C-4.79469244 6.86003838 -4.79469244 6.86003838 -7 6 C-7.99 6.495 -7.99 6.495 -9 7 C-9.33 6.34 -9.66 5.68 -10 5 Z M-16 20 C-16 20.33 -16 20.66 -16 21 C-14.02 21 -12.04 21 -10 21 C-10 20.67 -10 20.34 -10 20 C-11.98 20 -13.96 20 -16 20 Z M-16 27 C-12 28 -12 28 -12 28 Z " fill="#060504" transform="translate(162,385)"/>
<path d="M0 0 C3.5489518 3.29317149 4.38056442 6.62165874 5.19140625 11.29296875 C5.1875 13.5625 5.1875 13.5625 3.1875 16.5625 C1.30810547 16.90307617 1.30810547 16.90307617 -0.9453125 16.85546875 C-1.75097656 16.84580078 -2.55664062 16.83613281 -3.38671875 16.82617188 C-4.22847656 16.80103516 -5.07023437 16.77589844 -5.9375 16.75 C-6.78699219 16.73646484 -7.63648438 16.72292969 -8.51171875 16.70898438 C-10.61224837 16.67358219 -12.71245293 16.61977401 -14.8125 16.5625 C-15.1425 18.2125 -15.4725 19.8625 -15.8125 21.5625 C-12.10927301 22.60052575 -8.36772811 23.0964961 -4.5625 23.625 C-3.29921875 23.80160156 -2.0359375 23.97820312 -0.734375 24.16015625 C0.22984375 24.29292969 1.1940625 24.42570312 2.1875 24.5625 C2.8125 26.875 2.8125 26.875 3.1875 29.5625 C1.1875 32.5625 1.1875 32.5625 -0.62109375 33.23828125 C-3.06289145 33.59954544 -5.40619538 33.73138156 -7.875 33.75 C-8.73222656 33.76417969 -9.58945313 33.77835937 -10.47265625 33.79296875 C-15.74647145 33.27351116 -19.37036323 28.31366608 -22.5625 24.4375 C-25.42742859 20.14010711 -25.29333591 15.53666457 -24.8125 10.5625 C-23.4375 6.8125 -23.4375 6.8125 -21.8125 3.5625 C-21.60625 2.634375 -21.4 1.70625 -21.1875 0.75 C-19.49044061 -1.94986722 -18.64882355 -2.03991564 -15.625 -2.8125 C-9.65509034 -3.78678926 -5.01088916 -3.64710077 0 0 Z M-12.8125 2.5625 C-8.8125 3.5625 -8.8125 3.5625 -8.8125 3.5625 Z M-14.8125 3.5625 C-15.1425 4.5525 -15.4725 5.5425 -15.8125 6.5625 C-15.4825 7.2225 -15.1525 7.8825 -14.8125 8.5625 C-11.5125 8.5625 -8.2125 8.5625 -4.8125 8.5625 C-5.1425 7.2425 -5.4725 5.9225 -5.8125 4.5625 C-8.7825 4.2325 -11.7525 3.9025 -14.8125 3.5625 Z M-3.8125 5.5625 C-2.8125 8.5625 -2.8125 8.5625 -2.8125 8.5625 Z M-16.8125 6.5625 C-15.8125 8.5625 -15.8125 8.5625 -15.8125 8.5625 Z M-17.8125 8.5625 C-16.8125 10.5625 -16.8125 10.5625 -16.8125 10.5625 Z M-15.8125 9.5625 C-15.8125 9.8925 -15.8125 10.2225 -15.8125 10.5625 C-11.1925 10.5625 -6.5725 10.5625 -1.8125 10.5625 C-1.8125 10.2325 -1.8125 9.9025 -1.8125 9.5625 C-6.4325 9.5625 -11.0525 9.5625 -15.8125 9.5625 Z M-17.8125 15.5625 C-16.8125 19.5625 -16.8125 19.5625 -16.8125 19.5625 Z M-11.8125 24.5625 C-11.8125 24.8925 -11.8125 25.2225 -11.8125 25.5625 C-8.5125 25.5625 -5.2125 25.5625 -1.8125 25.5625 C-1.8125 25.2325 -1.8125 24.9025 -1.8125 24.5625 C-5.1125 24.5625 -8.4125 24.5625 -11.8125 24.5625 Z M-12.8125 31.5625 C-12.8125 31.8925 -12.8125 32.2225 -12.8125 32.5625 C-10.1725 32.5625 -7.5325 32.5625 -4.8125 32.5625 C-4.8125 32.2325 -4.8125 31.9025 -4.8125 31.5625 C-7.4525 31.5625 -10.0925 31.5625 -12.8125 31.5625 Z " fill="#080705" transform="translate(239.8125,398.4375)"/>
<path d="M0 0 C2.93133171 2.93133171 4.50625857 4.85972627 4.91796875 9.01171875 C4.89669922 10.18154297 4.89669922 10.18154297 4.875 11.375 C4.86855469 12.16261719 4.86210937 12.95023437 4.85546875 13.76171875 C4.6875 15.6875 4.6875 15.6875 3.6875 16.6875 C2.34482587 16.77381874 0.99775678 16.79456473 -0.34765625 16.78515625 C-1.15654297 16.78193359 -1.96542969 16.77871094 -2.79882812 16.77539062 C-3.64896484 16.76701172 -4.49910156 16.75863281 -5.375 16.75 C-6.22900391 16.74548828 -7.08300781 16.74097656 -7.96289062 16.73632812 C-10.07945663 16.72450373 -12.19598685 16.70656769 -14.3125 16.6875 C-14.6425 18.3375 -14.9725 19.9875 -15.3125 21.6875 C-11.60927301 22.72552575 -7.86772811 23.2214961 -4.0625 23.75 C-2.79921875 23.92660156 -1.5359375 24.10320312 -0.234375 24.28515625 C0.72984375 24.41792969 1.6940625 24.55070312 2.6875 24.6875 C3.3125 27 3.3125 27 3.6875 29.6875 C1.6875 32.6875 1.6875 32.6875 -0.1328125 33.359375 C-6.64321167 34.33943509 -12.72914453 34.59584883 -18.3125 30.6875 C-19.5 28.75 -19.5 28.75 -20.3125 26.6875 C-20.828125 26.006875 -21.34375 25.32625 -21.875 24.625 C-24.9973127 20.41666549 -24.79754804 15.70523833 -24.3125 10.6875 C-22.9375 6.9375 -22.9375 6.9375 -21.3125 3.6875 C-21.10625 2.759375 -20.9 1.83125 -20.6875 0.875 C-18.99044061 -1.82486722 -18.14882355 -1.91491564 -15.125 -2.6875 C-9.4227015 -3.62874479 -4.69798513 -3.67668401 0 0 Z M-12.3125 2.6875 C-8.3125 3.6875 -8.3125 3.6875 -8.3125 3.6875 Z M-14.3125 3.6875 C-14.6425 4.6775 -14.9725 5.6675 -15.3125 6.6875 C-14.9825 7.3475 -14.6525 8.0075 -14.3125 8.6875 C-11.0125 8.6875 -7.7125 8.6875 -4.3125 8.6875 C-3.9825 7.3675 -3.6525 6.0475 -3.3125 4.6875 C-5.71795638 3.48477181 -7.26246953 3.58678528 -9.9375 3.625 C-10.75476563 3.63402344 -11.57203125 3.64304687 -12.4140625 3.65234375 C-13.04054688 3.66394531 -13.66703125 3.67554688 -14.3125 3.6875 Z M-3.3125 5.6875 C-2.3125 8.6875 -2.3125 8.6875 -2.3125 8.6875 Z M-16.3125 6.6875 C-15.3125 8.6875 -15.3125 8.6875 -15.3125 8.6875 Z M-17.3125 8.6875 C-16.3125 10.6875 -16.3125 10.6875 -16.3125 10.6875 Z M-15.3125 9.6875 C-15.3125 10.0175 -15.3125 10.3475 -15.3125 10.6875 C-11.3525 10.6875 -7.3925 10.6875 -3.3125 10.6875 C-3.3125 10.3575 -3.3125 10.0275 -3.3125 9.6875 C-7.2725 9.6875 -11.2325 9.6875 -15.3125 9.6875 Z M-17.3125 15.6875 C-16.3125 19.6875 -16.3125 19.6875 -16.3125 19.6875 Z M-11.3125 24.6875 C-11.3125 25.0175 -11.3125 25.3475 -11.3125 25.6875 C-8.0125 25.6875 -4.7125 25.6875 -1.3125 25.6875 C-1.3125 25.3575 -1.3125 25.0275 -1.3125 24.6875 C-4.6125 24.6875 -7.9125 24.6875 -11.3125 24.6875 Z M-12.3125 31.6875 C-12.3125 32.0175 -12.3125 32.3475 -12.3125 32.6875 C-9.6725 32.6875 -7.0325 32.6875 -4.3125 32.6875 C-4.3125 32.3575 -4.3125 32.0275 -4.3125 31.6875 C-6.9525 31.6875 -9.5925 31.6875 -12.3125 31.6875 Z " fill="#080705" transform="translate(372.3125,398.3125)"/>
<path d="M0 0 C3.55382071 5.96124764 5.13356921 9.82043526 5.09765625 16.859375 C5.09443359 17.97441406 5.09121094 19.08945312 5.08789062 20.23828125 C5.07951172 21.39714844 5.07113281 22.55601562 5.0625 23.75 C5.05798828 24.92433594 5.05347656 26.09867187 5.04882812 27.30859375 C5.03705094 30.20578072 5.02060326 33.10286454 5 36 C3.02 36 1.04 36 -1 36 C-1.33 35.34 -1.66 34.68 -2 34 C-2.86625 34.495 -3.7325 34.99 -4.625 35.5 C-8.23584826 37.10482145 -10.11710972 37.66091749 -14 37 C-16.75 34.625 -16.75 34.625 -19 32 C-19.66 31.34 -20.32 30.68 -21 30 C-21.80558296 25.31637817 -21.37325669 21.74651337 -19.25 17.5 C-16.93842689 14.93158543 -16.28526938 14.41065867 -13 14 C-11.65022151 13.36729133 -10.31647119 12.69937532 -9 12 C-7.66666667 11.33333333 -6.33333333 10.66666667 -5 10 C-6.134375 9.690625 -7.26875 9.38125 -8.4375 9.0625 C-12 8 -12 8 -13 7 C-14.67542976 7.28604898 -16.34385343 7.61781233 -18 8 C-18.33 5.69 -18.66 3.38 -19 1 C-12.61773055 0.17648136 -6.43255401 -0.12086218 0 0 Z M-4 8 C-3 10 -3 10 -3 10 Z M-8 18 C-4 19 -4 19 -4 19 Z M-3 18 C-3 20.31 -3 22.62 -3 25 C-2.67 25 -2.34 25 -2 25 C-2 22.69 -2 20.38 -2 18 C-2.33 18 -2.66 18 -3 18 Z M-12 22 C-11.67 24.31 -11.34 26.62 -11 29 C-9.35 29 -7.7 29 -6 29 C-4.14223235 25.86501708 -3.79859524 23.62528568 -4 20 C-7.76687864 20 -8.91190305 20.23537317 -12 22 Z M-14 21 C-14 23.31 -14 25.62 -14 28 C-13.67 28 -13.34 28 -13 28 C-13 25.69 -13 23.38 -13 21 C-13.33 21 -13.66 21 -14 21 Z M-4 25 C-3 27 -3 27 -3 27 Z " fill="#080705" transform="translate(189,395)"/>
<path d="M0 0 C5.72976937 -0.34378616 10.11251817 -0.40987104 15 3 C20.229803 8.61895349 19.4657333 14.52347302 19.25 21.875 C19.23195313 23.0403125 19.21390625 24.205625 19.1953125 25.40625 C19.1483382 28.27168249 19.08266293 31.13541168 19 34 C16.69 34 14.38 34 12 34 C11.98018066 33.31373535 11.96036133 32.6274707 11.93994141 31.92041016 C11.84489055 28.82154221 11.73513153 25.72336706 11.625 22.625 C11.5940625 21.54476563 11.563125 20.46453125 11.53125 19.3515625 C11.49257813 18.3203125 11.45390625 17.2890625 11.4140625 16.2265625 C11.36693115 14.79691162 11.36693115 14.79691162 11.31884766 13.33837891 C11.21444204 10.81104824 11.21444204 10.81104824 9 9 C5.46782421 9.32110689 2.36550494 9.87816502 -1 11 C-1.33 18.59 -1.66 26.18 -2 34 C-4.31 34 -6.62 34 -9 34 C-9.16725986 29.46122739 -9.32785453 24.92228756 -9.48217773 20.38305664 C-9.5356662 18.8377441 -9.59100068 17.29249433 -9.64819336 15.74731445 C-9.72991433 13.53089949 -9.8050717 11.31434616 -9.87890625 9.09765625 C-9.90594131 8.4028566 -9.93297638 7.70805695 -9.96083069 6.99220276 C-10.01301108 5.32890224 -10.01185107 3.66407661 -10 2 C-9 1 -9 1 -5.9375 0.9375 C-4.4834375 0.9684375 -4.4834375 0.9684375 -3 1 C-2.67 1.99 -2.34 2.98 -2 4 C-1.34 2.68 -0.68 1.36 0 0 Z " fill="#010100" transform="translate(323,395)"/>
<path d="M0 0 C0 1.65 0 3.3 0 5 C1.98 5 3.96 5 6 5 C6 8.3 6 11.6 6 15 C4.02 15 2.04 15 0 15 C0.01160156 16.27617187 0.02320313 17.55234375 0.03515625 18.8671875 C0.04453417 20.53645687 0.05363437 22.20572783 0.0625 23.875 C0.07087891 24.71675781 0.07925781 25.55851562 0.08789062 26.42578125 C0.09111328 27.23144531 0.09433594 28.03710938 0.09765625 28.8671875 C0.10289307 29.61081543 0.10812988 30.35444336 0.11352539 31.12060547 C0 33 0 33 -1 35 C1.31 35 3.62 35 6 35 C5.125 41.875 5.125 41.875 4 43 C0.5625 43.1875 0.5625 43.1875 -3 43 C-3.66 42.34 -4.32 41.68 -5 41 C-5.66 40.67 -6.32 40.34 -7 40 C-7.72159424 38.35636866 -8.39351421 36.68949614 -9 35 C-9.66 35 -10.32 35 -11 35 C-11 28.4 -11 21.8 -11 15 C-11.99 14.67 -12.98 14.34 -14 14 C-14 11.03 -14 8.06 -14 5 C-13.01 5 -12.02 5 -11 5 C-10.67 4.01 -10.34 3.02 -10 2 C-6.75515269 -0.28341107 -3.87540045 -0.17615457 0 0 Z M-2 13 C-2 19.6 -2 26.2 -2 33 C-1.67 33 -1.34 33 -1 33 C-1 26.4 -1 19.8 -1 13 C-1.33 13 -1.66 13 -2 13 Z " fill="#080805" transform="translate(287,389)"/>
<path d="M0 0 C0.66 0.33 1.32 0.66 2 1 C4.51433011 1.09659164 7.00085439 1.13195633 9.51541042 1.12304783 C10.69769698 1.1247786 10.69769698 1.1247786 11.90386811 1.12654433 C14.57309401 1.12921356 17.24226087 1.1246863 19.91148376 1.12025452 C21.83322891 1.12069016 23.754974 1.12156493 25.67671877 1.12284368 C30.97954915 1.1250901 36.2823595 1.12106534 41.58518732 1.11606562 C47.295556 1.11176332 53.00592348 1.1132074 58.71629333 1.1139679 C68.61788642 1.1144933 78.51947294 1.11134475 88.42106438 1.10573006 C102.74052326 1.09761563 117.05997896 1.09499987 131.3794399 1.09374207 C154.61388299 1.09155113 177.8483225 1.08489883 201.08276367 1.07543945 C223.65079734 1.06626201 246.21883007 1.05917468 268.78686523 1.05493164 C269.82954195 1.05473435 269.82954195 1.05473435 270.89328285 1.05453308 C277.87412241 1.05321452 284.85496198 1.05193868 291.83580156 1.05069422 C346.36567262 1.04096983 400.89554076 1.02535124 455.42540878 1.0046621 C456.26376639 1.00434499 457.102124 1.00402789 457.96588638 1.00370118 C459.5101457 1.00311528 461.05440501 1.00252429 462.59866431 1.00192711 C465.39910979 1.00086282 468.19955428 1 471 1 C470.67 1.66 470.34 2.32 470 3 C314.9 3 159.8 3 0 3 C0 2.01 0 1.02 0 0 Z " fill="#2A2518" transform="translate(21,356)"/>
<path d="M0 0 C155.1 0 310.2 0 470 0 C470 0.33 470 0.66 470 1 C314.9 1 159.8 1 0 1 C0 0.67 0 0.34 0 0 Z " fill="#2B2619" transform="translate(21,80)"/>
<path d="M0 0 C-0.33 2.31 -0.66 4.62 -1 7 C-1.53625 6.835 -2.0725 6.67 -2.625 6.5 C-5.45886009 5.90339788 -8.1119806 5.9343632 -11 6 C-10.2236068 9.0745356 -10.2236068 9.0745356 -8 11 C-7.34 11.165 -6.68 11.33 -6 11.5 C-3.1495004 12.2126249 -2.12309966 13.83902352 -0.375 16.125 C1.86240033 20.80320069 1.5519404 25.00452315 0.1875 29.9375 C-1 32 -1 32 -4 33 C-4.99 33.66 -5.98 34.32 -7 35 C-9.26171875 35.1953125 -9.26171875 35.1953125 -11.6875 35.125 C-12.49574219 35.10695313 -13.30398437 35.08890625 -14.13671875 35.0703125 C-14.75160156 35.04710937 -15.36648437 35.02390625 -16 35 C-16 34.34 -16 33.68 -16 33 C-17.65 32.34 -19.3 31.68 -21 31 C-20.67 29.02 -20.34 27.04 -20 25 C-13.565 24.505 -13.565 24.505 -7 24 C-7.64005363 20.93497944 -7.64005363 20.93497944 -9.75 20.0625 C-10.86375 19.5365625 -10.86375 19.5365625 -12 19 C-18.30769231 14.38461538 -18.30769231 14.38461538 -20 11 C-20.05732171 7.03661333 -19.67166512 2.03598309 -17 -1 C-11.59642921 -2.40492841 -5.10861259 -2.55430629 0 0 Z M-9 4 C-5 5 -5 5 -5 5 Z M-13 6 C-12 10 -12 10 -12 10 Z M-16 26 C-16 26.33 -16 26.66 -16 27 C-13.69 27 -11.38 27 -9 27 C-9 26.67 -9 26.34 -9 26 C-11.31 26 -13.62 26 -16 26 Z " fill="#090806" transform="translate(269,397)"/>
<path d="M0 0 C2.31 0 4.62 0 7 0 C7 16.17 7 32.34 7 49 C4.69 48.67 2.38 48.34 0 48 C0 32.16 0 16.32 0 0 Z " fill="#000000" transform="translate(202,381)"/>
<path d="M0 0 C0.33 0 0.66 0 1 0 C1 90.75 1 181.5 1 275 C0.67 275 0.34 275 0 275 C0 184.25 0 93.5 0 0 Z " fill="#2B2619" transform="translate(492,82)"/>
<path d="M0 0 C0.33 0 0.66 0 1 0 C1 90.75 1 181.5 1 275 C0.67 275 0.34 275 0 275 C0 184.25 0 93.5 0 0 Z " fill="#2B2619" transform="translate(19,82)"/>
<path d="M0 0 C2.31 0 4.62 0 7 0 C7 10.89 7 21.78 7 33 C4.36 33.33 1.72 33.66 -1 34 C-0.67 22.78 -0.34 11.56 0 0 Z " fill="#010100" transform="translate(298,396)"/>
<path d="M0 0 C2 3 2 3 1.625 5.6875 C1.41875 6.450625 1.2125 7.21375 1 8 C-0.98 8.66 -2.96 9.32 -5 10 C-5.97608217 7.07175348 -6.08226668 5.04386724 -6 2 C-4.02 1.34 -2.04 0.68 0 0 Z " fill="#040403" transform="translate(304,383)"/>
<path d="M0 0 C0.33 0 0.66 0 1 0 C1 15.51 1 31.02 1 47 C0.67 47 0.34 47 0 47 C0 31.49 0 15.98 0 0 Z " fill="#2B2619" transform="translate(210,382)"/>
<path d="M0 0 C0.33 0 0.66 0 1 0 C1 15.51 1 31.02 1 47 C0.67 47 0.34 47 0 47 C0 31.49 0 15.98 0 0 Z " fill="#2B2619" transform="translate(200,382)"/>
<path d="M0 0 C0.33 0 0.66 0 1 0 C1 14.85 1 29.7 1 45 C0.67 45 0.34 45 0 45 C0 30.15 0 15.3 0 0 Z " fill="#2B2619" transform="translate(135,384)"/>
<path d="M0 0 C0.33 0 0.66 0 1 0 C1 10.23 1 20.46 1 31 C0.67 31 0.34 31 0 31 C0 20.77 0 10.54 0 0 Z " fill="#454545" transform="translate(296,397)"/>
<path d="M0 0 C0.33 0 0.66 0 1 0 C1 9.9 1 19.8 1 30 C0.67 30 0.34 30 0 30 C0 20.1 0 10.2 0 0 Z " fill="#2B271A" transform="translate(312,399)"/>
<path d="M0 0 C0.33 0 0.66 0 1 0 C1 7.92 1 15.84 1 24 C0.67 24 0.34 24 0 24 C0 16.08 0 8.16 0 0 Z " fill="#2B2619" transform="translate(343,405)"/>
<path d="M0 0 C0.33 0 0.66 0 1 0 C1 7.59 1 15.18 1 23 C0.67 23 0.34 23 0 23 C0 15.41 0 7.82 0 0 Z " fill="#2C271A" transform="translate(333,406)"/>
<path d="M0 0 C0.33 0 0.66 0 1 0 C1 7.59 1 15.18 1 23 C0.67 23 0.34 23 0 23 C0 15.41 0 7.82 0 0 Z " fill="#2C271A" transform="translate(322,406)"/>
<path d="M0 0 C0.33 0 0.66 0 1 0 C1 7.26 1 14.52 1 22 C0.67 22 0.34 22 0 22 C0 14.74 0 7.48 0 0 Z " fill="#2D281D" transform="translate(195,407)"/>
<path d="M0 0 C1.9375 0.6875 1.9375 0.6875 2.9375 2.6875 C1.266875 2.9040625 1.266875 2.9040625 -0.4375 3.125 C-3.88392047 3.47122035 -3.88392047 3.47122035 -6.0625 4.6875 C-3.69287511 -0.55952653 -3.69287511 -0.55952653 0 0 Z " fill="#302C22" transform="translate(329.0625,401.3125)"/>
<path d="M0 0 C1.65 0.33 3.3 0.66 5 1 C5 1.33 5 1.66 5 2 C3.02 2 1.04 2 -1 2 C-0.67 1.34 -0.34 0.68 0 0 Z " fill="#2D291D" transform="translate(300,393)"/>
<path d="M0 0 C0.33 0 0.66 0 1 0 C1 2.64 1 5.28 1 8 C0.67 8 0.34 8 0 8 C0 5.36 0 2.72 0 0 Z " fill="#2E291E" transform="translate(271,416)"/>
<path d="M0 0 C0.33 0 0.66 0 1 0 C1 2.64 1 5.28 1 8 C0.67 8 0.34 8 0 8 C0 5.36 0 2.72 0 0 Z " fill="#312D24" transform="translate(346,409)"/>
<path d="M0 0 C0.33 0 0.66 0 1 0 C1 2.64 1 5.28 1 8 C0.67 8 0.34 8 0 8 C0 5.36 0 2.72 0 0 Z " fill="#343129" transform="translate(213,409)"/>
<path d="M0 0 C0.33 0 0.66 0 1 0 C1 1.65 1 3.3 1 5 C0.34 3.68 -0.32 2.36 -1 1 C-0.67 0.67 -0.34 0.34 0 0 Z " fill="#322E25" transform="translate(271,397)"/>
<path d="M0 0 C1.98 0 3.96 0 6 0 C6 0.33 6 0.66 6 1 C4.02 1 2.04 1 0 1 C0 0.67 0 0.34 0 0 Z " fill="#2F2B20" transform="translate(336,430)"/>
<path d="M0 0 C1.98 0 3.96 0 6 0 C6 0.33 6 0.66 6 1 C4.02 1 2.04 1 0 1 C0 0.67 0 0.34 0 0 Z " fill="#2F2B20" transform="translate(314,430)"/>
<path d="M0 0 C1.98 0 3.96 0 6 0 C6 0.33 6 0.66 6 1 C4.02 1 2.04 1 0 1 C0 0.67 0 0.34 0 0 Z " fill="#2F2B20" transform="translate(299,430)"/>
<path d="M0 0 C1.98 0 3.96 0 6 0 C6 0.33 6 0.66 6 1 C4.02 1 2.04 1 0 1 C0 0.67 0 0.34 0 0 Z " fill="#2F2B20" transform="translate(202,430)"/>
<path d="M0 0 C1.98 0 3.96 0 6 0 C6 0.33 6 0.66 6 1 C4.02 1 2.04 1 0 1 C0 0.67 0 0.34 0 0 Z " fill="#454545" transform="translate(145,381)"/>
<path d="M0 0 C1.98 0 3.96 0 6 0 C6 0.33 6 0.66 6 1 C4.02 1 2.04 1 0 1 C0 0.67 0 0.34 0 0 Z " fill="#38352F" transform="translate(202,379)"/>
<path d="M0 0 C1.65 0 3.3 0 5 0 C5 0.33 5 0.66 5 1 C3.35 1 1.7 1 0 1 C0 0.67 0 0.34 0 0 Z " fill="#302C21" transform="translate(287,422)"/>
<path d="M0 0 C0.33 0 0.66 0 1 0 C1 1.65 1 3.3 1 5 C0.67 5 0.34 5 0 5 C0 3.35 0 1.7 0 0 Z " fill="#35322A" transform="translate(378,405)"/>
<path d="M0 0 C0.33 0 0.66 0 1 0 C1 1.65 1 3.3 1 5 C0.67 5 0.34 5 0 5 C0 3.35 0 1.7 0 0 Z " fill="#35322A" transform="translate(247,403)"/>
<path d="M0 0 C1.65 0 3.3 0 5 0 C5 0.33 5 0.66 5 1 C3.35 1 1.7 1 0 1 C0 0.67 0 0.34 0 0 Z " fill="#2B2619" transform="translate(314,394)"/>
<path d="M0 0 C0.33 0 0.66 0 1 0 C1 1.65 1 3.3 1 5 C0.67 5 0.34 5 0 5 C0 3.35 0 1.7 0 0 Z " fill="#302C21" transform="translate(296,385)"/>
<path d="M0 0 C1.65 0 3.3 0 5 0 C5 0.33 5 0.66 5 1 C3.35 1 1.7 1 0 1 C0 0.67 0 0.34 0 0 Z " fill="#35322A" transform="translate(137,382)"/>
<path d="M0 0 C1 4 1 4 1 4 Z " fill="#312D24" transform="translate(245,405)"/>
<path d="M0 0 C1 4 1 4 1 4 Z " fill="#38352F" transform="translate(194,402)"/>
<path d="M0 0 C1 4 1 4 1 4 Z " fill="#2B2619" transform="translate(294,397)"/>
<path d="M0 0 C4 1 4 1 4 1 Z " fill="#38352F" transform="translate(255,394)"/>
<path d="M0 0 C4 1 4 1 4 1 Z " fill="#38352F" transform="translate(183,394)"/>
<path d="M0 0 C4 1 4 1 4 1 Z " fill="#312D24" transform="translate(174,394)"/>
<path d="M0 0 C1 4 1 4 1 4 Z " fill="#312D24" transform="translate(307,386)"/>
<path d="M0 0 C3 1 3 1 3 1 Z " fill="#333027" transform="translate(250,430)"/>
<path d="" fill="#454545" transform="translate(0,0)"/>
<path d="" fill="#333027" transform="translate(0,0)"/>
<path d="" fill="#333027" transform="translate(0,0)"/>
<path d="" fill="#333027" transform="translate(0,0)"/>
<path d="" fill="#333027" transform="translate(0,0)"/>
<path d="" fill="#333027" transform="translate(0,0)"/>
<path d="" fill="#333027" transform="translate(0,0)"/>
<path d="" fill="#2B2619" transform="translate(0,0)"/>
<path d="M0 0 C3 1 3 1 3 1 Z " fill="#333027" transform="translate(153,412)"/>
<path d="M0 0 C3 1 3 1 3 1 Z " fill="#333027" transform="translate(176,407)"/>
<path d="M0 0 C0.99 0.495 0.99 0.495 2 1 C1.01 1.495 1.01 1.495 0 2 C0 1.34 0 0.68 0 0 Z " fill="#2B2619" transform="translate(358,403)"/>
<path d="M0 0 C0.99 0.495 0.99 0.495 2 1 C1.01 1.495 1.01 1.495 0 2 C0 1.34 0 0.68 0 0 Z " fill="#2B2619" transform="translate(225,403)"/>
<path d="M0 0 C3 1 3 1 3 1 Z " fill="#3C3A36" transform="translate(173,403)"/>
<path d="" fill="#2B2619" transform="translate(0,0)"/>
<path d="" fill="#333027" transform="translate(0,0)"/>
<path d="" fill="#3C3A36" transform="translate(0,0)"/>
<path d="M0 0 C3 1 3 1 3 1 Z " fill="#2B2619" transform="translate(366,394)"/>
<path d="M0 0 C3 1 3 1 3 1 Z " fill="#333027" transform="translate(358,394)"/>
<path d="M0 0 C3 1 3 1 3 1 Z " fill="#2B2619" transform="translate(332,394)"/>
<path d="M0 0 C3 1 3 1 3 1 Z " fill="#333027" transform="translate(325,394)"/>
<path d="M0 0 C3 1 3 1 3 1 Z " fill="#2B2619" transform="translate(263,394)"/>
<path d="M0 0 C3 1 3 1 3 1 Z " fill="#2B2619" transform="translate(233,394)"/>
<path d="M0 0 C3 1 3 1 3 1 Z " fill="#333027" transform="translate(225,394)"/>
<path d="" fill="#333027" transform="translate(0,0)"/>
<path d="" fill="#2B2619" transform="translate(0,0)"/>
<path d="M0 0 C3 1 3 1 3 1 Z " fill="#333027" transform="translate(278,388)"/>
<path d="M0 0 C3 1 3 1 3 1 Z " fill="#333027" transform="translate(281,387)"/>
<path d="M0 0 C3 1 3 1 3 1 Z " fill="#2B2619" transform="translate(153,382)"/>
<path d="M0 0 C2 1 2 1 2 1 Z " fill="#38352F" transform="translate(172,430)"/>
<path d="M0 0 C2 1 2 1 2 1 Z " fill="#2B2619" transform="translate(222,429)"/>
<path d="" fill="#38352F" transform="translate(0,0)"/>
<path d="" fill="#38352F" transform="translate(0,0)"/>
<path d="" fill="#38352F" transform="translate(0,0)"/>
<path d="M0 0 C2 1 2 1 2 1 Z " fill="#2B2619" transform="translate(372,421)"/>
<path d="M0 0 C2 1 2 1 2 1 Z " fill="#38352F" transform="translate(251,421)"/>
<path d="M0 0 C2 1 2 1 2 1 Z " fill="#2B2619" transform="translate(239,421)"/>
<path d="" fill="#38352F" transform="translate(0,0)"/>
<path d="" fill="#38352F" transform="translate(0,0)"/>
<path d="" fill="#38352F" transform="translate(0,0)"/>
<path d="M0 0 C2 1 2 1 2 1 Z " fill="#38352F" transform="translate(255,415)"/>
<path d="" fill="#38352F" transform="translate(0,0)"/>
<path d="M0 0 C2 1 2 1 2 1 Z " fill="#38352F" transform="translate(253,414)"/>
<path d="" fill="#38352F" transform="translate(0,0)"/>
<path d="M0 0 C2 1 2 1 2 1 Z " fill="#38352F" transform="translate(156,411)"/>
<path d="" fill="#38352F" transform="translate(0,0)"/>
<path d="M0 0 C2 1 2 1 2 1 Z " fill="#38352F" transform="translate(261,408)"/>
<path d="M0 0 C2 1 2 1 2 1 Z " fill="#38352F" transform="translate(174,408)"/>
<path d="" fill="#2B2619" transform="translate(0,0)"/>
<path d="" fill="#2B2619" transform="translate(0,0)"/>
<path d="" fill="#38352F" transform="translate(0,0)"/>
<path d="" fill="#38352F" transform="translate(0,0)"/>
<path d="" fill="#2B2619" transform="translate(0,0)"/>
<path d="" fill="#38352F" transform="translate(0,0)"/>
<path d="M0 0 C2 1 2 1 2 1 Z " fill="#38352F" transform="translate(171,404)"/>
<path d="" fill="#38352F" transform="translate(0,0)"/>
<path d="" fill="#2B2619" transform="translate(0,0)"/>
<path d="M0 0 C2 1 2 1 2 1 Z " fill="#38352F" transform="translate(264,403)"/>
<path d="" fill="#2B2619" transform="translate(0,0)"/>
<path d="" fill="#38352F" transform="translate(0,0)"/>
<path d="M0 0 C2 1 2 1 2 1 Z " fill="#2B2619" transform="translate(369,395)"/>
<path d="M0 0 C2 1 2 1 2 1 Z " fill="#2B2619" transform="translate(356,395)"/>
<path d="M0 0 C2 1 2 1 2 1 Z " fill="#2B2619" transform="translate(335,395)"/>
<path d="M0 0 C2 1 2 1 2 1 Z " fill="#38352F" transform="translate(267,395)"/>
<path d="M0 0 C2 1 2 1 2 1 Z " fill="#2B2619" transform="translate(236,395)"/>
<path d="M0 0 C2 1 2 1 2 1 Z " fill="#2B2619" transform="translate(223,395)"/>
<path d="M0 0 C2 1 2 1 2 1 Z " fill="#2B2619" transform="translate(172,395)"/>
<path d="" fill="#454545" transform="translate(0,0)"/>
<path d="M0 0 C2 1 2 1 2 1 Z " fill="#38352F" transform="translate(157,383)"/>
<path d="M0 0 C2 1 2 1 2 1 Z " fill="#38352F" transform="translate(302,382)"/>
<path d="M0 0 C2 1 2 1 2 1 Z " fill="#38352F" transform="translate(299,382)"/>
<path d="" fill="#2B2619" transform="translate(0,0)"/>
<path d="" fill="#2B2619" transform="translate(0,0)"/>
<path d="" fill="#454545" transform="translate(0,0)"/>
<path d="" fill="#2B2619" transform="translate(0,0)"/>
<path d="" fill="#2B2619" transform="translate(0,0)"/>
<path d="" fill="#2B2619" transform="translate(0,0)"/>
<path d="" fill="#454545" transform="translate(0,0)"/>
<path d="" fill="#454545" transform="translate(0,0)"/>
<path d="" fill="#454545" transform="translate(0,0)"/>
<path d="" fill="#2B2619" transform="translate(0,0)"/>
<path d="" fill="#2B2619" transform="translate(0,0)"/>
<path d="" fill="#454545" transform="translate(0,0)"/>
<path d="" fill="#454545" transform="translate(0,0)"/>
<path d="" fill="#454545" transform="translate(0,0)"/>
<path d="" fill="#2B2619" transform="translate(0,0)"/>
<path d="" fill="#2B2619" transform="translate(0,0)"/>
<path d="" fill="#2B2619" transform="translate(0,0)"/>
<path d="" fill="#2B2619" transform="translate(0,0)"/>
<path d="" fill="#2B2619" transform="translate(0,0)"/>
<path d="" fill="#2B2619" transform="translate(0,0)"/>
<path d="" fill="#2B2619" transform="translate(0,0)"/>
<path d="" fill="#2B2619" transform="translate(0,0)"/>
<path d="" fill="#454545" transform="translate(0,0)"/>
<path d="" fill="#2B2619" transform="translate(0,0)"/>
<path d="" fill="#454545" transform="translate(0,0)"/>
<path d="" fill="#2B2619" transform="translate(0,0)"/>
<path d="" fill="#2B2619" transform="translate(0,0)"/>
<path d="" fill="#2B2619" transform="translate(0,0)"/>
<path d="" fill="#2B2619" transform="translate(0,0)"/>
<path d="" fill="#454545" transform="translate(0,0)"/>
<path d="" fill="#2B2619" transform="translate(0,0)"/>
<path d="" fill="#2B2619" transform="translate(0,0)"/>
<path d="" fill="#2B2619" transform="translate(0,0)"/>
<path d="" fill="#2B2619" transform="translate(0,0)"/>
<path d="" fill="#2B2619" transform="translate(0,0)"/>
<path d="" fill="#2B2619" transform="translate(0,0)"/>
<path d="" fill="#2B2619" transform="translate(0,0)"/>
<path d="" fill="#2B2619" transform="translate(0,0)"/>
<path d="" fill="#2B2619" transform="translate(0,0)"/>
<path d="" fill="#2B2619" transform="translate(0,0)"/>
<path d="" fill="#2B2619" transform="translate(0,0)"/>
<path d="" fill="#2B2619" transform="translate(0,0)"/>
<path d="" fill="#2B2619" transform="translate(0,0)"/>
<path d="" fill="#2B2619" transform="translate(0,0)"/>
<path d="" fill="#2B2619" transform="translate(0,0)"/>
<path d="" fill="#454545" transform="translate(0,0)"/>
<path d="" fill="#2B2619" transform="translate(0,0)"/>
<path d="" fill="#2B2619" transform="translate(0,0)"/>
<path d="" fill="#2B2619" transform="translate(0,0)"/>
<path d="" fill="#2B2619" transform="translate(0,0)"/>
<path d="" fill="#2B2619" transform="translate(0,0)"/>
<path d="" fill="#2B2619" transform="translate(0,0)"/>
<path d="" fill="#2B2619" transform="translate(0,0)"/>
<path d="" fill="#454545" transform="translate(0,0)"/>
<path d="" fill="#2B2619" transform="translate(0,0)"/>
<path d="" fill="#2B2619" transform="translate(0,0)"/>
<path d="" fill="#454545" transform="translate(0,0)"/>
<path d="" fill="#2B2619" transform="translate(0,0)"/>
<path d="" fill="#454545" transform="translate(0,0)"/>
<path d="" fill="#454545" transform="translate(0,0)"/>
<path d="" fill="#2B2619" transform="translate(0,0)"/>
<path d="" fill="#454545" transform="translate(0,0)"/>
<path d="" fill="#454545" transform="translate(0,0)"/>
<path d="" fill="#454545" transform="translate(0,0)"/>
<path d="" fill="#2B2619" transform="translate(0,0)"/>
<path d="" fill="#454545" transform="translate(0,0)"/>
<path d="" fill="#454545" transform="translate(0,0)"/>
<path d="" fill="#2B2619" transform="translate(0,0)"/>
<path d="" fill="#2B2619" transform="translate(0,0)"/>
<path d="" fill="#454545" transform="translate(0,0)"/>
<path d="" fill="#2B2619" transform="translate(0,0)"/>
<path d="" fill="#2B2619" transform="translate(0,0)"/>
<path d="" fill="#2B2619" transform="translate(0,0)"/>
<path d="" fill="#2B2619" transform="translate(0,0)"/>
<path d="" fill="#2B2619" transform="translate(0,0)"/>
<path d="" fill="#2B2619" transform="translate(0,0)"/>
<path d="" fill="#2B2619" transform="translate(0,0)"/>
<path d="" fill="#2B2619" transform="translate(0,0)"/>
<path d="" fill="#2B2619" transform="translate(0,0)"/>
<path d="" fill="#2B2619" transform="translate(0,0)"/>
<path d="" fill="#2B2619" transform="translate(0,0)"/>
<path d="" fill="#2B2619" transform="translate(0,0)"/>
<path d="" fill="#2B2619" transform="translate(0,0)"/>
<path d="" fill="#454545" transform="translate(0,0)"/>
<path d="" fill="#454545" transform="translate(0,0)"/>
<path d="" fill="#2B2619" transform="translate(0,0)"/>
<path d="" fill="#2B2619" transform="translate(0,0)"/>
<path d="" fill="#454545" transform="translate(0,0)"/>
<path d="" fill="#2B2619" transform="translate(0,0)"/>
<path d="" fill="#454545" transform="translate(0,0)"/>
<path d="" fill="#2B2619" transform="translate(0,0)"/>
<path d="" fill="#454545" transform="translate(0,0)"/>
<path d="" fill="#454545" transform="translate(0,0)"/>
<path d="" fill="#454545" transform="translate(0,0)"/>
<path d="" fill="#2B2619" transform="translate(0,0)"/>
</svg>
