<svg width="26" height="30" viewBox="0 0 26 30" fill="none" xmlns="http://www.w3.org/2000/svg">
<g id="PayPal">
<path id="Shape" d="M7.51002 28.9836L8.02995 25.681L6.87178 25.6542H1.34141L5.18474 1.28498C5.19667 1.21142 5.23544 1.14282 5.2921 1.09411C5.34877 1.0454 5.42134 1.01855 5.49689 1.01855H14.8219C17.9176 1.01855 20.054 1.66275 21.1694 2.93425C21.6923 3.53073 22.0254 4.15406 22.1864 4.84001C22.3554 5.55976 22.3584 6.41969 22.1934 7.4685L22.1815 7.54505V8.21708L22.7044 8.51334C23.1448 8.74696 23.4947 9.01438 23.7631 9.32057C24.2105 9.83056 24.4998 10.4787 24.6221 11.2472C24.7483 12.0375 24.7066 12.978 24.4998 14.0427C24.2612 15.2675 23.8755 16.3342 23.3545 17.207C22.8754 18.0113 22.265 18.6784 21.5402 19.1953C20.8483 19.6864 20.0262 20.0592 19.0967 20.2978C18.196 20.5324 17.169 20.6507 16.0427 20.6507H15.317C14.798 20.6507 14.294 20.8376 13.8983 21.1726C13.5017 21.5146 13.2392 21.9819 13.1587 22.4929L13.104 22.7901L12.1854 28.6108L12.1437 28.8245C12.1327 28.8921 12.1139 28.9259 12.086 28.9488C12.0612 28.9696 12.0254 28.9836 11.9906 28.9836H7.51002Z" fill="#253B80"/>
<path id="Shape_2" d="M23.1996 7.62207C23.1718 7.80002 23.14 7.98195 23.1042 8.16884C21.8745 14.4826 17.6673 16.6637 12.294 16.6637H9.55813C8.90101 16.6637 8.34727 17.1409 8.24488 17.7891L6.84414 26.6727L6.44748 29.1908C6.38087 29.6163 6.70894 30 7.13841 30H11.9908C12.5654 30 13.0535 29.5825 13.144 29.0158L13.1917 28.7693L14.1053 22.9715L14.164 22.6534C14.2534 22.0847 14.7425 21.6672 15.3172 21.6672H16.0429C20.7441 21.6672 24.4244 19.7585 25.5001 14.2351C25.9494 11.9277 25.7168 10.001 24.5278 8.64603C24.1679 8.23744 23.7216 7.89844 23.1996 7.62207Z" fill="#179BD7"/>
<path id="Shape_3" d="M21.9129 7.10936C21.7251 7.05469 21.5312 7.00498 21.3324 6.96024C21.1326 6.9165 20.9278 6.87773 20.717 6.84393C19.9794 6.72463 19.1711 6.66797 18.3052 6.66797H10.9964C10.8164 6.66797 10.6454 6.70873 10.4923 6.78229C10.1553 6.94434 9.9048 7.26346 9.84415 7.65415L8.28933 17.502L8.24459 17.7894C8.34699 17.1412 8.90072 16.664 9.55784 16.664H12.2937C17.667 16.664 21.8742 14.4819 23.1039 8.16911C23.1407 7.98221 23.1715 7.80029 23.1994 7.62234C22.8882 7.45731 22.5512 7.31614 22.1883 7.19585C22.0989 7.16603 22.0064 7.1372 21.9129 7.10936Z" fill="#222D65"/>
<path id="Shape_4" d="M10.4926 6.78298C10.6467 6.70941 10.8167 6.66866 10.9966 6.66866H18.3055C19.1714 6.66866 19.9796 6.72532 20.7172 6.84462C20.928 6.87842 21.1328 6.91719 21.3326 6.96093C21.5314 7.00567 21.7253 7.05537 21.9132 7.11005C22.0066 7.13789 22.0991 7.16672 22.1896 7.19555C22.5524 7.31584 22.8894 7.458 23.2006 7.62203C23.5664 5.2888 23.1976 3.70017 21.9361 2.26166C20.5453 0.678 18.0351 0 14.823 0H5.49804C4.84191 0 4.28221 0.477185 4.18081 1.12635L0.296723 25.7461C0.220175 26.2332 0.595958 26.6726 1.08706 26.6726H6.84409L8.28957 17.5017L9.84439 7.65384C9.90504 7.26315 10.1556 6.94403 10.4926 6.78298Z" fill="#253B80"/>
</g>
</svg>
