<svg width="27" height="22" viewBox="0 0 27 22" fill="none" xmlns="http://www.w3.org/2000/svg">
<g id="Group">
<path id="Union" fill-rule="evenodd" clip-rule="evenodd" d="M15.0834 4.52566C15.0246 3.95827 14.9635 3.36958 14.813 2.78214C14.4032 1.37679 13.2679 0.500021 12.0506 0.500021C11.3717 0.497516 10.5129 0.915862 10.026 1.33922L5.9901 4.71981H3.87735C2.32245 4.71981 1.07218 5.91848 0.836068 7.64823C0.635436 9.30909 0.586502 12.4442 0.836068 14.2716C1.0526 16.0991 2.24661 17.2802 3.87735 17.2802H5.9901L10.1043 20.7109C10.5263 21.0779 11.2714 21.4987 11.9564 21.4987C12.0005 21.5 12.0396 21.5 12.0788 21.5C13.3193 21.5 14.4117 20.5907 14.8216 19.1891C14.976 18.5965 15.0301 18.0411 15.0824 17.5044L15.0834 17.4944L15.1384 16.9596C15.3488 15.2248 15.3488 6.76394 15.1384 5.04171L15.0834 4.52566ZM19.8077 4.57702C19.4713 4.08102 18.8046 3.95701 18.3165 4.30146C17.8332 4.64841 17.7134 5.3323 18.0498 5.82705C18.9856 7.20609 19.5007 9.0423 19.5007 11C19.5007 12.9565 18.9856 14.7939 18.0498 16.173C17.7134 16.6677 17.8332 17.3516 18.3177 17.6986C18.4988 17.8263 18.7104 17.894 18.9282 17.894C19.2793 17.894 19.6071 17.7173 19.8077 17.423C20.9895 15.682 21.6416 13.4011 21.6416 11C21.6416 8.5989 20.9895 6.31804 19.8077 4.57702ZM22.0052 0.757919C22.4921 0.41222 23.1612 0.538726 23.4952 1.03348C25.3254 3.72768 26.3334 7.26859 26.3334 10.9999C26.3334 14.7337 25.3254 18.2733 23.4952 20.9675C23.2958 21.2619 22.9667 21.4385 22.6156 21.4385C22.3979 21.4385 22.1874 21.3709 22.0064 21.2431C21.5219 20.8962 21.402 20.2135 21.7372 19.7175C23.3203 17.3853 24.1925 14.289 24.1925 10.9999C24.1925 7.71198 23.3203 4.61572 21.7372 2.2835C21.402 1.78875 21.5219 1.10487 22.0052 0.757919Z" fill="white"/>
</g>
</svg>
