<svg width="79" height="78" viewBox="0 0 79 78" fill="none" xmlns="http://www.w3.org/2000/svg">
<path d="M34.9499 44.85L27.8812 37.7812C27.2854 37.1854 26.5541 36.8875 25.6874 36.8875C24.8208 36.8875 24.0624 37.2125 23.4124 37.8625C22.8166 38.4583 22.5187 39.2167 22.5187 40.1375C22.5187 41.0583 22.8166 41.8167 23.4124 42.4125L32.6749 51.675C33.2708 52.2708 34.0291 52.5687 34.9499 52.5687C35.8708 52.5687 36.6291 52.2708 37.2249 51.675L55.6687 33.2313C56.2645 32.6354 56.5624 31.9042 56.5624 31.0375C56.5624 30.1708 56.2374 29.4125 55.5874 28.7625C54.9916 28.1667 54.2333 27.8687 53.3124 27.8687C52.3916 27.8687 51.6333 28.1667 51.0374 28.7625L34.9499 44.85ZM39.4999 71.5C35.0041 71.5 30.7791 70.6463 26.8249 68.939C22.8708 67.2338 19.4312 64.9188 16.5062 61.9938C13.5812 59.0688 11.2661 55.6292 9.56094 51.675C7.85361 47.7208 6.99994 43.4958 6.99994 39C6.99994 34.5042 7.85361 30.2792 9.56094 26.325C11.2661 22.3708 13.5812 18.9313 16.5062 16.0063C19.4312 13.0813 22.8708 10.7651 26.8249 9.05775C30.7791 7.35258 35.0041 6.5 39.4999 6.5C43.9958 6.5 48.2208 7.35258 52.1749 9.05775C56.1291 10.7651 59.5687 13.0813 62.4937 16.0063C65.4187 18.9313 67.7338 22.3708 69.4389 26.325C71.1463 30.2792 71.9999 34.5042 71.9999 39C71.9999 43.4958 71.1463 47.7208 69.4389 51.675C67.7338 55.6292 65.4187 59.0688 62.4937 61.9938C59.5687 64.9188 56.1291 67.2338 52.1749 68.939C48.2208 70.6463 43.9958 71.5 39.4999 71.5Z" fill="#22C55E"/>
</svg>
