<?xml version="1.0" encoding="UTF-8"?>
<svg version="1.1" xmlns="http://www.w3.org/2000/svg" width="2560" height="1707">
<path d="M0 0 C844.8 0 1689.6 0 2560 0 C2560 563.31 2560 1126.62 2560 1707 C1715.2 1707 870.4 1707 0 1707 C0 1143.69 0 580.38 0 0 Z " fill="#E30A17" transform="translate(0,0)"/>
<path d="M0 0 C1.20458862 -0.00100708 2.40917725 -0.00201416 3.65026855 -0.00305176 C20.1989255 0.00630803 36.42777598 0.29139504 52.81298828 2.79248047 C55.9944843 3.27775831 59.18083253 3.70532062 62.37109375 4.12890625 C107.83727627 10.38777439 153.12927501 25.03891309 193.81835938 46.21826172 C195.92789073 47.30970142 198.04916031 48.37585566 200.171875 49.44140625 C225.67646047 62.38520748 249.07093077 78.54991592 271.04199219 96.78808594 C272.68662859 98.14606757 274.34309597 99.48707071 276.0078125 100.8203125 C280.64084871 104.54441518 285.02674106 108.31424369 289.15625 112.58984375 C290.86761835 114.30524835 292.65439408 115.86797857 294.5 117.4375 C302.24005787 124.12346439 309.49653246 131.49140443 316.12109375 139.28125 C318.05117842 141.52781507 320.05668139 143.69583904 322.0625 145.875 C327.64839808 152.07525236 332.74360658 158.62637613 337.8125 165.25 C338.56998535 166.23806641 338.56998535 166.23806641 339.34277344 167.24609375 C357.8125 191.40862367 357.8125 191.40862367 357.8125 196.25 C356.75675781 195.06857422 356.75675781 195.06857422 355.6796875 193.86328125 C344.94077843 181.96844154 333.40848693 171.16866589 320.8125 161.25 C319.41064453 160.12078125 319.41064453 160.12078125 317.98046875 158.96875 C273.09873293 123.47818611 219.26086216 100.23822021 163 90.625 C161.80310547 90.41858887 160.60621094 90.21217773 159.37304688 89.99951172 C141.6848901 87.08072874 124.16868958 85.86602264 106.25 85.9375 C105.29305237 85.93932281 104.33610474 85.94114563 103.35015869 85.94302368 C87.65881912 85.99310208 72.32667223 86.72235424 56.8125 89.25 C55.76642578 89.41628906 54.72035156 89.58257813 53.64257812 89.75390625 C-12.41669229 100.57016035 -74.31988049 130.1242177 -123.40234375 175.68359375 C-125.71397016 177.81366185 -128.0536298 179.88951758 -130.4375 181.9375 C-137.25369938 187.86462989 -143.33084817 194.38801473 -149.1875 201.25 C-149.98800781 202.16136719 -150.78851562 203.07273437 -151.61328125 204.01171875 C-159.4309572 212.98185284 -166.36692667 222.50852826 -173.1875 232.25 C-173.62416992 232.86536621 -174.06083984 233.48073242 -174.51074219 234.11474609 C-196.12420698 264.66668978 -212.08273985 299.82539846 -221.58349609 335.96337891 C-222.14780941 338.09974047 -222.73471189 340.22813694 -223.33203125 342.35546875 C-226.64168839 354.31733817 -228.98289486 366.36115561 -230.8125 378.625 C-230.93568604 379.42566895 -231.05887207 380.22633789 -231.18579102 381.05126953 C-233.43492759 396.7905625 -233.42790015 412.75840354 -233.4375 428.625 C-233.43817474 429.63646088 -233.43884949 430.64792175 -233.43954468 431.69003296 C-233.41339273 456.46863405 -230.69847986 480.06755058 -225.1875 504.25 C-224.97786621 505.1869873 -224.76823242 506.12397461 -224.55224609 507.08935547 C-215.29764908 547.67706845 -197.21930827 587.32769271 -173.1875 621.25 C-172.66430176 621.98959961 -172.14110352 622.72919922 -171.60205078 623.49121094 C-163.6907927 634.60122012 -155.35461978 645.15343237 -146.1875 655.25 C-145.62562988 655.87358398 -145.06375977 656.49716797 -144.48486328 657.13964844 C-132.95885196 669.89141611 -120.70061304 681.60914636 -107.1875 692.25 C-105.78564453 693.37921875 -105.78564453 693.37921875 -104.35546875 694.53125 C-66.11708417 724.76853485 -20.66471542 747.09049553 26.8125 758.25 C27.75722168 758.47381348 28.70194336 758.69762695 29.67529297 758.92822266 C44.933658 762.47662082 60.22340325 764.7590871 75.8125 766.25 C76.91706543 766.35803955 76.91706543 766.35803955 78.04394531 766.46826172 C118.74659961 770.22374402 161.79185544 766.64196215 200.8125 754.25 C202.13080843 753.85571813 203.44983018 753.46381394 204.76953125 753.07421875 C253.94452741 738.38926466 298.53240781 712.94119062 336.41796875 678.421875 C338.03154298 676.95833948 339.65959108 675.5106238 341.30078125 674.078125 C347.63693913 668.52043753 353.25662192 662.5742442 358.8125 656.25 C358.8125 660.2144854 356.95998916 662.19231173 354.6875 665.25 C354.24519043 665.85521484 353.80288086 666.46042969 353.34716797 667.08398438 C352.36917303 668.42014189 351.38804781 669.75401216 350.40429688 671.0859375 C348.73951053 673.34922986 347.09524517 675.62646804 345.453125 677.90625 C338.3257568 687.75517664 330.91171342 697.18447073 322.8125 706.25 C322.03390625 707.12785156 321.2553125 708.00570312 320.453125 708.91015625 C318.25411664 711.37039432 316.03651524 713.81235722 313.8125 716.25 C312.92691406 717.22839844 312.04132812 718.20679688 311.12890625 719.21484375 C303.74262317 727.35417242 296.24305499 735.2952417 287.88671875 742.453125 C285.61092282 744.4246243 283.40327333 746.46134395 281.1875 748.5 C275.5380222 753.59577707 269.58398039 758.25249548 263.56201172 762.89453125 C261.91837542 764.16797093 260.28754329 765.45589608 258.66015625 766.75 C236.80167496 783.95011642 212.61583631 797.79046333 187.8125 810.25 C187.00490234 810.65847168 186.19730469 811.06694336 185.36523438 811.48779297 C162.82253933 822.81136662 138.93225918 830.99998402 114.8125 838.25 C113.85907715 838.53858887 112.9056543 838.82717773 111.92333984 839.12451172 C61.37357058 854.13812844 5.00371454 857.1895692 -47.1875 851.25 C-48.66041504 851.09724609 -48.66041504 851.09724609 -50.16308594 850.94140625 C-64.09181691 849.49542457 -77.63918953 847.15184425 -91.26464844 843.93261719 C-94.21534629 843.24349664 -97.17252563 842.59187858 -100.1328125 841.9453125 C-149.34802929 830.96860244 -196.50187032 809.46098892 -238.1875 781.25 C-238.8882666 780.77594727 -239.5890332 780.30189453 -240.31103516 779.81347656 C-250.42957749 772.92043544 -260.02625147 765.52534778 -269.43603516 757.69726562 C-271.84857287 755.70374408 -274.30341065 753.76398929 -276.75 751.8125 C-287.30419268 743.14298458 -297.0166011 733.50411536 -306.6875 723.875 C-307.4287915 723.13838135 -308.17008301 722.4017627 -308.93383789 721.64282227 C-313.5554821 717.00759574 -317.9490361 712.23730472 -322.1875 707.25 C-322.72584473 706.61835937 -323.26418945 705.98671875 -323.81884766 705.3359375 C-343.03922886 682.61620913 -359.79871719 658.29988234 -374.1875 632.25 C-374.66541992 631.38600586 -375.14333984 630.52201172 -375.63574219 629.63183594 C-406.42020806 573.48113253 -425.97285657 507.26749601 -426.42578125 442.97265625 C-426.4355751 441.82034515 -426.44536896 440.66803406 -426.45545959 439.48080444 C-426.63081274 413.46983395 -426.32764115 387.95878955 -422.1875 362.25 C-422.08095093 361.57418884 -421.97440186 360.89837769 -421.86462402 360.2020874 C-407.99016161 272.50770487 -366.9215419 191.43496636 -297.4375 120.375 C-296.64529053 119.57811768 -295.85308105 118.78123535 -295.03686523 117.96020508 C-290.24832618 113.18469061 -285.33054301 108.63986621 -280.1875 104.25 C-279.16638174 103.36100425 -278.14552775 102.47170482 -277.125 101.58203125 C-254.41082036 82.0997894 -229.43161484 65.56796399 -203.1875 51.25 C-202.34960938 50.79077148 -201.51171875 50.33154297 -200.6484375 49.85839844 C-178.36362305 37.71707278 -155.27600867 28.17804422 -131.1875 20.25 C-129.85277166 19.79845166 -128.51812721 19.34665522 -127.18359375 18.89453125 C-85.82978916 5.34381479 -43.34816271 0.02515167 0 0 Z " fill="#FEFEFE" transform="translate(853.1875,426.75)"/>
<path d="M0 0 C2.59793151 2.59793151 4.52362651 4.53687978 6.5234375 7.44140625 C6.97968506 8.0974585 7.43593262 8.75351074 7.90600586 9.42944336 C8.63315796 10.4853064 8.63315796 10.4853064 9.375 11.5625 C13.80756255 17.92196445 18.32306063 24.208745 22.9375 30.4375 C29.15274363 38.83495436 35.28757623 47.28722584 41.39111328 55.76611328 C44.09012118 59.51359769 46.79531494 63.25661201 49.5 67 C52.74131453 71.48610379 55.98141954 75.97304831 59.21484375 80.46484375 C66.01944394 89.91206721 72.89234742 99.30610429 79.80859375 108.671875 C83.56595489 113.76184689 87.28846818 118.87652079 91 124 C102.47171793 120.69679843 113.84080229 117.15787891 125.171875 113.40234375 C126.75302207 112.88071147 128.334262 112.35936056 129.91558838 111.83827209 C134.02768037 110.48260088 138.13877636 109.12393735 142.24957275 107.76434326 C148.83844855 105.5855286 155.42861791 103.41063684 162.01926422 101.23718452 C164.29098936 100.48741406 166.56212469 99.73587914 168.83319092 98.9841156 C176.25581237 96.53131832 183.69176477 94.1449989 191.1701355 91.86601257 C194.91213492 90.72086285 198.63533584 89.52254836 202.35546875 88.30859375 C203.06802322 88.07721207 203.7805777 87.84583038 204.51472473 87.60743713 C207.48809721 86.64191826 210.46072654 85.67412208 213.43334961 84.70629883 C221.59643687 82.05002079 229.75723566 79.40135587 238 77 C236.6865119 79.77075248 235.22447036 82.21979592 233.41796875 84.6953125 C232.90500244 85.40163818 232.39203613 86.10796387 231.86352539 86.83569336 C231.03389282 87.96890015 231.03389282 87.96890015 230.1875 89.125 C229.00249395 90.75382607 227.8176012 92.38273458 226.6328125 94.01171875 C225.72450684 95.25767822 225.72450684 95.25767822 224.79785156 96.52880859 C222.57171248 99.58869178 220.3610368 102.65952251 218.15087891 105.73095703 C213.08312087 112.77098118 207.96757795 119.77367533 202.8125 126.75 C197.99605784 133.26868079 193.23977065 139.8244828 188.54296875 146.4296875 C181.64886144 156.12239283 174.67144803 165.75570769 167.60473633 175.32324219 C165.84262029 177.70921596 164.08512681 180.09854 162.328125 182.48828125 C160.18975117 185.39540419 158.03274499 188.28694176 155.859375 191.16796875 C154.92669285 192.42418935 153.99437712 193.68068211 153.0625 194.9375 C152.63106689 195.49856445 152.19963379 196.05962891 151.75512695 196.63769531 C149.52811664 199.50007004 149.52811664 199.50007004 149.26074219 202.95898438 C150.02737574 205.07558163 150.92197543 206.6140588 152.23046875 208.44140625 C152.69638428 209.0974585 153.1622998 209.75351074 153.64233398 210.42944336 C154.15223877 211.13335205 154.66214355 211.83726074 155.1875 212.5625 C155.98619507 213.67927124 155.98619507 213.67927124 156.80102539 214.81860352 C161.96245077 222.01016459 167.2274235 229.12615732 172.4921875 236.2421875 C177.51625286 243.04173704 182.45197339 249.90477848 187.39111328 256.76611328 C190.09012118 260.51359769 192.79531494 264.25661201 195.5 268 C198.74131453 272.48610379 201.98141954 276.97304831 205.21484375 281.46484375 C210.8727029 289.31997972 216.56512782 297.14755871 222.3125 304.9375 C223.19240601 306.13125244 223.19240601 306.13125244 224.09008789 307.34912109 C226.60633159 310.76154649 229.12594216 314.17120888 231.66015625 317.5703125 C232.39105469 318.55773437 233.12195312 319.54515625 233.875 320.5625 C234.49117187 321.38878906 235.10734375 322.21507812 235.7421875 323.06640625 C237 325 237 325 237 327 C231.0215847 325.77096684 225.25177411 324.23428359 219.4609375 322.3125 C218.27602974 321.92513924 218.27602974 321.92513924 217.06718445 321.529953 C214.50184983 320.69046437 211.93845664 319.84520381 209.375 319 C207.56322625 318.40617894 205.75129373 317.81284206 203.93920898 317.2199707 C201.19833503 316.32312464 198.45757065 315.42595817 195.71733093 314.5271759 C188.1744258 312.05318879 180.62061228 309.61466054 173.0625 307.1875 C163.62705168 304.15412775 154.20297009 301.08767622 144.78515625 298 C143.7048262 297.64609695 142.62449615 297.29219391 141.51142883 296.92756653 C136.11997178 295.16138795 130.72930906 293.39286243 125.34008789 291.61987305 C113.94689294 287.88103213 102.53183834 284.28798738 91 281 C83.98357083 290.28290457 77.07761686 299.6262861 70.34228516 309.11474609 C63.26007073 319.06179225 56.06886004 328.92949588 48.8125 338.75 C43.99607657 345.26869503 39.23977094 351.8244824 34.54296875 358.4296875 C26.37179927 369.91786637 18.0737849 381.31336842 9.66894531 392.6315918 C7.25466966 395.8918505 4.8728966 399.14571905 2.66015625 402.546875 C2.11230469 403.35640625 1.56445312 404.1659375 1 405 C0.67 405 0.34 405 0 405 C0 353.85 0 302.7 0 250 C-2.97 249.34 -5.94 248.68 -9 248 C-10.53985445 247.57326759 -12.07433081 247.12523764 -13.59594727 246.63745117 C-14.39218002 246.38424606 -15.18841278 246.13104095 -16.0087738 245.87016296 C-16.85279251 245.59718887 -17.69681122 245.32421478 -18.56640625 245.04296875 C-19.48966202 244.74771805 -20.41291779 244.45246735 -21.364151 244.14826965 C-24.43166976 243.16565743 -27.49713559 242.17681076 -30.5625 241.1875 C-32.74459675 240.48622806 -34.92672648 239.78505874 -37.10888672 239.08398438 C-55.63571406 233.12190424 -74.13285792 227.06864224 -92.625 221 C-93.29927662 220.77872311 -93.97355324 220.55744621 -94.66826248 220.32946396 C-112.12747734 214.59882344 -129.57334054 208.82897147 -147 203 C-144.74829221 200.74829221 -143.41480855 200.33774672 -140.40600586 199.40625 C-139.44215469 199.10356201 -138.47830353 198.80087402 -137.48524475 198.48901367 C-136.42663742 198.16263916 -135.36803009 197.83626465 -134.27734375 197.5 C-131.97993826 196.77851366 -129.68291645 196.0558047 -127.38623047 195.33203125 C-126.17489441 194.95127441 -124.96355835 194.57051758 -123.71551514 194.17822266 C-117.56696587 192.22846339 -111.44199807 190.20801451 -105.31640625 188.1875 C-104.03874606 187.766736 -102.76105614 187.34606227 -101.4833374 186.92547607 C-98.85905441 186.06157288 -96.23488481 185.19732639 -93.61077881 184.33288574 C-72.63716862 177.42554317 -51.65336219 170.54929438 -30.62960815 163.79589844 C-28.47446316 163.10332266 -26.31977246 162.40933149 -24.16555786 161.71386719 C-21.20288615 160.75804092 -18.23848361 159.80780598 -15.2734375 158.859375 C-14.41393997 158.58123962 -13.55444244 158.30310425 -12.66889954 158.01654053 C-11.87243515 157.76325989 -11.07597076 157.50997925 -10.25537109 157.24902344 C-9.57348724 157.03034607 -8.89160339 156.8116687 -8.1890564 156.58636475 C-5.50330711 155.86695491 -2.74260081 155.45710014 0 155 C0 103.85 0 52.7 0 0 Z " fill="#FEFEFE" transform="translate(1335,651)"/>
</svg>
